<?xml version="1.0" encoding="utf-8"?>
<!-- Generator: Adobe Illustrator 22.0.1, SVG Export Plug-In . SVG Version: 6.00 Build 0)  -->
<svg version="1.1" id="Слой_1" xmlns="http://www.w3.org/2000/svg" xmlns:xlink="http://www.w3.org/1999/xlink" x="0px" y="0px"
	 viewBox="0 0 249.7 60" style="enable-background:new 0 0 249.7 60;" xml:space="preserve">
<title>logo</title>
<g>
	<path d="M25.2,0v10.6h13.7v31.3c0,4.2-3.4,7.5-7.5,7.5H16.6c-3.3,0-6-2.7-6-6l0,0v-10c0-2.3,1.3-4.3,3.3-5.4l11.3-5.6V10.6l-16.1,8
		C3.5,21.4,0,27.1,0,33.4v10C0,52.6,7.4,60,16.6,60h14.8c10,0,18.1-8.1,18.1-18.1V0H25.2z"/>
	<path d="M86.5,44.3h-3.6l-0.3-1.8c-2.5,1.2-5.2,1.9-7.9,2c-7.1,0-11.6-4.4-11.6-10.7S67.4,23,74.6,23c2.6,0.1,5.2,0.8,7.6,1.9v-9.6
		l4.2,0.2L86.5,44.3z M82.3,38.9V28.5c-2.2-1-4.7-1.7-7.1-1.8c-6.5,0-7.8,3.3-7.8,6.8s1.4,6.8,7.8,6.8C77.6,40.3,80,39.8,82.3,38.9
		L82.3,38.9z"/>
	<path d="M111.6,35.9H94.2c0.7,2.6,2.9,4.6,7.6,4.6c2.5-0.1,5-0.5,7.3-1.3l1.2,3.7c-2.8,1-5.7,1.5-8.7,1.5c-7.1,0-12-4.4-12-10.7
		S94.2,23,101.4,23c5.4,0,10.3,3.2,10.3,9.7C111.7,34.2,111.6,35.9,111.6,35.9z M94,32l13.5-0.1c0-3.6-2.6-5-5.9-5
		C96.7,26.9,94.5,29.2,94,32z"/>
	<path d="M120.2,44.3l-8.1-20.7l4.6-0.2l6.1,17.1l6.2-16.9l4.5-0.2l-8,21L120.2,44.3z"/>
	<path d="M167.9,44.3h-3.6l-0.3-1.8c-2.5,1.2-5.2,1.9-7.9,2c-7.1,0-11.6-4.4-11.6-10.7S148.8,23,156,23c2.6,0.1,5.2,0.8,7.7,1.9
		v-9.6l4.2,0.2L167.9,44.3z M163.7,38.9V28.5c-2.2-1-4.7-1.7-7.1-1.8c-6.5,0-7.9,3.3-7.9,6.8s1.4,6.8,7.9,6.8
		C159,40.3,161.4,39.8,163.7,38.9L163.7,38.9z"/>
	<path d="M193,35.9h-17.4c0.7,2.6,2.9,4.6,7.6,4.6c2.5,0,5-0.4,7.4-1.2l1.2,3.7c-2.8,1-5.7,1.5-8.6,1.5c-7.1,0-12-4.4-12-10.7
		s4.6-10.7,11.8-10.7c5.4,0,10.3,3.2,10.3,9.7C193.1,34.2,193,35.9,193,35.9z M175.4,32l13.5-0.1c0-3.6-2.6-5-5.9-5
		C178.1,26.9,175.9,29.2,175.4,32z"/>
	<path d="M212.7,24l-0.9,3.6c-2.1-0.5-4.2-0.8-6.4-0.9c-3.3,0-5.9,0.6-5.9,2.1s2.9,2.1,5.8,2.4c4.3,0.5,9.6,1.4,9.6,6.3
		s-3.9,6.9-10.5,6.9c-2.9-0.1-5.8-0.6-8.6-1.3l0.9-3.8c2.5,0.7,5.1,1.1,7.6,1.2c5.6,0,6.3-1.2,6.3-2.6c0-1.3-2.8-2.1-6.3-2.5
		c-4.5-0.6-9.1-2.3-9-6.3c0-4.6,4.5-6.2,9.9-6.2C207.7,22.9,210.2,23.3,212.7,24z"/>
	<path d="M236.4,25l0.3-1.6l3.6,0.2v20.7h-3.6l-0.3-1.8c-2.5,1.2-5.2,1.9-7.9,2c-7.1,0-11.7-4.4-11.7-10.7S221.3,23,228.4,23
		C231.2,23.1,233.9,23.8,236.4,25z M236.1,38.9V28.5c-2.2-1-4.7-1.7-7.1-1.8c-6.5,0-7.9,3.3-7.9,6.8s1.4,6.8,7.9,6.8
		C231.4,40.2,233.8,39.8,236.1,38.9L236.1,38.9z"/>
	<path d="M247.1,20c-1.5,0-2.6-1.2-2.6-2.6c0-1.5,1.2-2.6,2.6-2.6c1.5,0,2.6,1.2,2.6,2.6c0,0,0,0,0,0C249.7,18.8,248.5,20,247.1,20
		C247.1,20,247.1,20,247.1,20z M245,23.6l4.2-0.2v20.9H245V23.6z"/>
</g>
</svg>
